<?xml version="1.0" encoding="UTF-8"?>
<svg width="24px" height="21px" viewBox="0 0 24 21" version="1.1" xmlns="http://www.w3.org/2000/svg" xmlns:xlink="http://www.w3.org/1999/xlink">
    <!-- Generator: Sketch 50.2 (55047) - http://www.bohemiancoding.com/sketch -->
    <title>icon_store</title>
    <desc>Created with Sketch.</desc>
    <defs>
        <polygon id="path-1" points="0.0028125 20.5284375 24 20.5284375 24 0.031875 0.0028125 0.031875"></polygon>
    </defs>
    <g id="Page-1" stroke="none" stroke-width="1" fill="none" fill-rule="evenodd">
        <g id="icon_store">
            <g id="Group-3">
                <g id="Fill-1-Clipped">
                    <mask id="mask-2" fill="white">
                        <use xlink:href="#path-1"></use>
                    </mask>
                    <g id="path-1"></g>
                    <path d="M21.1420781,8.531625 C20.5532344,8.531625 20.0112187,8.26064062 19.6567031,7.78823438 L19.3659375,7.40226563 L19.3095469,7.03167188 L22.9643437,7.03167188 C22.797375,7.88564062 22.0444219,8.531625 21.1420781,8.531625 Z M21.4995938,19.53225 L20.49975,19.53225 L20.49975,10.53225 L14.49975,10.53225 L14.49975,19.53225 L2.49975,19.53225 L2.49975,9.5094375 C2.6161875,9.5240625 2.73632813,9.53179688 2.85642188,9.53179688 C3.79101563,9.53179688 4.62154687,9.08282812 5.14232813,8.38884375 C5.6638125,9.08282812 6.49364063,9.53179688 7.42823437,9.53179688 C8.36282813,9.53179688 9.19265625,9.08282812 9.71414063,8.38884375 C10.234875,9.08282812 11.0654531,9.53179688 12.0000469,9.53179688 C12.9346406,9.53179688 13.7637188,9.08282812 14.2852031,8.38884375 C14.8066875,9.08282812 15.6365156,9.53179688 16.5711094,9.53179688 C17.5057031,9.53179688 18.3355313,9.08282812 18.8570156,8.38884375 C19.3785,9.08282812 20.2075781,9.53179688 21.1421719,9.53179688 C21.2637656,9.53179688 21.3824063,9.52410937 21.4995938,9.5094375 L21.4995938,19.53225 Z M19.5,19.53225 L15.4995,19.53225 L15.4995,16.03125 L15.99975,16.03125 C16.2758906,16.03125 16.5,15.8078437 16.5,15.53175 C16.5,15.2556563 16.2758906,15.03225 15.99975,15.03225 L15.4995,15.03225 L15.4995,11.53125 L19.5,11.53125 L19.5,19.53225 Z M1.03415625,7.031625 L4.69771875,7.031625 L4.61934375,7.42017187 L4.34320312,7.78823438 C3.98798437,8.26064063 3.44671875,8.531625 2.856375,8.531625 C1.95482813,8.531625 1.20117188,7.88564062 1.03415625,7.031625 Z M2.37379688,3.063 L5.28079688,3.063 L4.84429688,6.031875 L1.16460937,6.031875 L2.37379688,3.063 Z M9.2255625,7.031625 L9.20723437,7.3981875 L8.91426562,7.7881875 C8.55904687,8.26059375 8.01778125,8.53157812 7.4281875,8.53157812 C6.83859375,8.53157812 6.29732812,8.26059375 5.94210937,7.7881875 L5.65354687,7.40404687 L5.70848438,7.031625 L9.2255625,7.031625 Z M5.85496875,6.031875 L6.29146875,3.063 L9.4276875,3.063 L9.27679687,6.031875 L5.85496875,6.031875 Z M10.2780938,6.031875 L10.4282344,3.063 L13.5703125,3.063 L13.7153437,6.031875 L10.2780938,6.031875 Z M13.7644219,7.031625 L13.782,7.39415625 L13.485375,7.7881875 C13.1309062,8.26059375 12.5888906,8.53157812 12,8.53157812 C11.4096562,8.53157812 10.8683906,8.26059375 10.5131719,7.7881875 L10.2099375,7.38351562 L10.2275156,7.03157812 L13.7644219,7.03157812 L13.7644219,7.031625 Z M14.7165469,6.031875 L14.5708125,3.063 L17.7077813,3.063 L18.1501875,6.031875 L14.7165469,6.031875 Z M18.2988281,7.031625 L18.3530156,7.39453125 L18.0571406,7.7881875 C17.7026719,8.26059375 17.1606562,8.53157812 16.5710625,8.53157812 C15.9814687,8.53157812 15.4394531,8.26059375 15.0849844,7.7881875 L14.7832031,7.38609375 L14.765625,7.031625 L18.2988281,7.031625 Z M2.71434375,2.03175 L21.2585156,2.03175 L21.2585156,1.031625 L2.71434375,1.031625 L2.71434375,2.03175 Z M22.8347344,6.031875 L19.1609062,6.031875 L18.71925,3.063 L21.6255,3.063 L22.8347344,6.031875 Z M23.9648438,6.22814063 L23.9487188,6.13804688 C23.9458125,6.124125 23.9443125,6.11020312 23.9414062,6.09665625 L22.2583125,2.03170313 L22.2583125,0.031875 L1.71384375,0.031875 L1.71384375,2.03175 L0.05859375,6.09632813 C0.0549375,6.11245313 0.052734375,6.12857813 0.04978125,6.14428125 L0.03440625,6.22814063 C0.01171875,6.37354687 0,6.52260938 0,6.67457813 C0,7.76151563 0.60646875,8.70632812 1.5,9.18932812 L1.5,20.53125 L22.5,20.53125 L22.5,9.18932812 C23.3928281,8.70628125 24,7.76146875 24,6.67457813 C24,6.52260938 23.9875313,6.37354687 23.9648438,6.22814063 Z" id="Fill-1" fill="#FFFFFF" fill-rule="nonzero" mask="url(#mask-2)"></path>
                </g>
            </g>
            <path d="M4.5,16.53225 L12.4995,16.53225 L12.4995,11.53125 L4.5,11.53125 L4.5,16.53225 Z M3.4995,17.53125 L13.5,17.53125 L13.5,10.53225 L3.4995,10.53225 L3.4995,17.53125 Z" id="Fill-4" fill="#FFFFFF" fill-rule="nonzero"></path>
            <path d="M11.4960938,14.03175 C11.3576719,14.03175 11.2324219,14.0874375 11.1423281,14.1782344 L10.1425781,15.1787344 C10.0517344,15.2688281 9.99609375,15.3940781 9.99609375,15.53175 C9.99609375,15.8078906 10.2202031,16.03125 10.4955938,16.03125 C10.6340156,16.03125 10.7592656,15.9755625 10.8493594,15.8847656 L11.8491094,14.8857656 C11.9399531,14.7949219 11.9955938,14.6697188 11.9955938,14.5312969 C11.9955938,14.2558594 11.7722344,14.03175 11.4960938,14.03175" id="Fill-5" fill="#FFFFFF" fill-rule="nonzero"></path>
            <path d="M11.4960938,12.03225 C11.3576719,12.03225 11.2324219,12.0879375 11.1423281,12.1787344 L8.14232813,15.1779844 C8.05223438,15.2680781 7.99584375,15.3940312 7.99584375,15.53175 C7.99584375,15.8078906 8.21995313,16.03125 8.49609375,16.03125 C8.6338125,16.03125 8.75901563,15.9755625 8.84910938,15.8847656 L11.8491094,12.8855156 C11.9399531,12.7954219 11.9955938,12.6694688 11.9955938,12.53175 C11.9955938,12.2556094 11.7722344,12.03225 11.4960938,12.03225" id="Fill-6" fill="#FFFFFF" fill-rule="nonzero"></path>
        </g>
    </g>
</svg>